<mxfile host="app.diagrams.net" modified="2021-09-07T11:40:20.499Z" agent="5.0 (Macintosh; Intel Mac OS X 10_15_7) AppleWebKit/537.36 (KHTML, like Gecko) Chrome/81.0.4044.138 Safari/537.36" etag="lOG_F8bKBUGSpVshJatM" version="15.0.3" type="github">
  <diagram id="41TENCk-us3p-DswaN3T" name="Page-1">
    <mxGraphModel dx="1722" dy="562" grid="1" gridSize="10" guides="1" tooltips="1" connect="1" arrows="1" fold="1" page="1" pageScale="1" pageWidth="400" pageHeight="300" math="0" shadow="0">
      <root>
        <mxCell id="0" />
        <mxCell id="1" parent="0" />
        <mxCell id="7CHLF1nU-8btLIFfPD2b-3" value="&lt;font style=&quot;font-size: 28px&quot;&gt;0&lt;/font&gt;" style="ellipse;whiteSpace=wrap;html=1;aspect=fixed;fillColor=#e51400;fontColor=#ffffff;strokeColor=#E51400;" parent="1" vertex="1">
          <mxGeometry x="440" y="570" width="80" height="80" as="geometry" />
        </mxCell>
        <mxCell id="7CHLF1nU-8btLIFfPD2b-4" value="&lt;font style=&quot;font-size: 28px&quot;&gt;0&lt;/font&gt;" style="ellipse;whiteSpace=wrap;html=1;aspect=fixed;fillColor=#1ba1e2;strokeColor=#006EAF;fontColor=#ffffff;" parent="1" vertex="1">
          <mxGeometry x="560" y="560" width="80" height="80" as="geometry" />
        </mxCell>
        <mxCell id="7CHLF1nU-8btLIFfPD2b-5" style="rounded=0;orthogonalLoop=1;jettySize=auto;html=1;exitX=0;exitY=0.5;exitDx=0;exitDy=0;endArrow=none;endFill=0;strokeWidth=2;entryX=1;entryY=0.5;entryDx=0;entryDy=0;" parent="1" source="7CHLF1nU-8btLIFfPD2b-4" target="7CHLF1nU-8btLIFfPD2b-3" edge="1">
          <mxGeometry relative="1" as="geometry">
            <mxPoint x="320" y="635" as="sourcePoint" />
            <mxPoint x="300" y="635" as="targetPoint" />
          </mxGeometry>
        </mxCell>
        <mxCell id="7CHLF1nU-8btLIFfPD2b-6" value="&lt;font style=&quot;font-size: 28px&quot;&gt;5&lt;/font&gt;" style="ellipse;whiteSpace=wrap;html=1;aspect=fixed;fillColor=#e3c800;strokeColor=#B09500;fontColor=#000000;" parent="1" vertex="1">
          <mxGeometry x="680" y="520" width="80" height="80" as="geometry" />
        </mxCell>
        <mxCell id="7CHLF1nU-8btLIFfPD2b-7" style="rounded=0;orthogonalLoop=1;jettySize=auto;html=1;exitX=0;exitY=0.5;exitDx=0;exitDy=0;endArrow=none;endFill=0;strokeWidth=2;entryX=1;entryY=0;entryDx=0;entryDy=0;" parent="1" source="7CHLF1nU-8btLIFfPD2b-6" target="7CHLF1nU-8btLIFfPD2b-4" edge="1">
          <mxGeometry relative="1" as="geometry">
            <mxPoint x="559.9999999999966" y="610" as="sourcePoint" />
            <mxPoint x="518.2842712474621" y="621.715728752538" as="targetPoint" />
          </mxGeometry>
        </mxCell>
        <mxCell id="7CHLF1nU-8btLIFfPD2b-9" value="&lt;font style=&quot;font-size: 28px&quot;&gt;5&lt;/font&gt;" style="ellipse;whiteSpace=wrap;html=1;aspect=fixed;fillColor=#e3c800;strokeColor=#B09500;fontColor=#000000;" parent="1" vertex="1">
          <mxGeometry x="680" y="660" width="80" height="80" as="geometry" />
        </mxCell>
        <mxCell id="7CHLF1nU-8btLIFfPD2b-10" value="&lt;font style=&quot;font-size: 28px&quot;&gt;0&lt;/font&gt;" style="ellipse;whiteSpace=wrap;html=1;aspect=fixed;fillColor=#1ba1e2;strokeColor=#006EAF;fontColor=#ffffff;" parent="1" vertex="1">
          <mxGeometry x="440" y="670" width="80" height="80" as="geometry" />
        </mxCell>
        <mxCell id="7CHLF1nU-8btLIFfPD2b-11" style="rounded=0;orthogonalLoop=1;jettySize=auto;html=1;exitX=0.5;exitY=0;exitDx=0;exitDy=0;endArrow=none;endFill=0;strokeWidth=2;entryX=0.5;entryY=1;entryDx=0;entryDy=0;" parent="1" source="7CHLF1nU-8btLIFfPD2b-10" target="7CHLF1nU-8btLIFfPD2b-3" edge="1">
          <mxGeometry relative="1" as="geometry">
            <mxPoint x="560" y="610" as="sourcePoint" />
            <mxPoint x="518.2842712474596" y="621.7157287525406" as="targetPoint" />
          </mxGeometry>
        </mxCell>
        <mxCell id="7CHLF1nU-8btLIFfPD2b-12" value="&lt;font style=&quot;font-size: 28px&quot;&gt;0&lt;/font&gt;" style="ellipse;whiteSpace=wrap;html=1;aspect=fixed;fillColor=#1ba1e2;strokeColor=#006EAF;fontColor=#ffffff;" parent="1" vertex="1">
          <mxGeometry x="320" y="560" width="80" height="80" as="geometry" />
        </mxCell>
        <mxCell id="7CHLF1nU-8btLIFfPD2b-13" style="rounded=0;orthogonalLoop=1;jettySize=auto;html=1;exitX=0;exitY=0.5;exitDx=0;exitDy=0;endArrow=none;endFill=0;strokeWidth=2;entryX=1;entryY=0.5;entryDx=0;entryDy=0;" parent="1" source="7CHLF1nU-8btLIFfPD2b-3" target="7CHLF1nU-8btLIFfPD2b-12" edge="1">
          <mxGeometry relative="1" as="geometry">
            <mxPoint x="559.9999999999966" y="610" as="sourcePoint" />
            <mxPoint x="518.2842712474621" y="621.715728752538" as="targetPoint" />
          </mxGeometry>
        </mxCell>
        <mxCell id="7CHLF1nU-8btLIFfPD2b-14" value="&lt;font style=&quot;font-size: 28px&quot;&gt;-2&lt;/font&gt;" style="ellipse;whiteSpace=wrap;html=1;aspect=fixed;fillColor=#e3c800;strokeColor=#B09500;fontColor=#000000;" parent="1" vertex="1">
          <mxGeometry x="200" y="520" width="80" height="80" as="geometry" />
        </mxCell>
        <mxCell id="7CHLF1nU-8btLIFfPD2b-15" style="rounded=0;orthogonalLoop=1;jettySize=auto;html=1;exitX=1;exitY=0.5;exitDx=0;exitDy=0;endArrow=none;endFill=0;strokeWidth=2;entryX=0;entryY=0;entryDx=0;entryDy=0;" parent="1" source="7CHLF1nU-8btLIFfPD2b-14" target="7CHLF1nU-8btLIFfPD2b-12" edge="1">
          <mxGeometry relative="1" as="geometry">
            <mxPoint x="670" y="570" as="sourcePoint" />
            <mxPoint x="628.2842712474671" y="581.715728752533" as="targetPoint" />
          </mxGeometry>
        </mxCell>
        <mxCell id="7CHLF1nU-8btLIFfPD2b-17" value="&lt;font style=&quot;font-size: 28px&quot;&gt;-2&lt;/font&gt;" style="ellipse;whiteSpace=wrap;html=1;aspect=fixed;fillColor=#e3c800;strokeColor=#B09500;fontColor=#000000;" parent="1" vertex="1">
          <mxGeometry x="200" y="660" width="80" height="80" as="geometry" />
        </mxCell>
        <mxCell id="7CHLF1nU-8btLIFfPD2b-18" style="rounded=0;orthogonalLoop=1;jettySize=auto;html=1;exitX=1;exitY=0;exitDx=0;exitDy=0;endArrow=none;endFill=0;strokeWidth=2;entryX=0;entryY=1;entryDx=0;entryDy=0;" parent="1" source="7CHLF1nU-8btLIFfPD2b-17" target="7CHLF1nU-8btLIFfPD2b-12" edge="1">
          <mxGeometry relative="1" as="geometry">
            <mxPoint x="310.00000000000364" y="570" as="sourcePoint" />
            <mxPoint x="351.7157287525331" y="581.7157287525331" as="targetPoint" />
          </mxGeometry>
        </mxCell>
        <mxCell id="7CHLF1nU-8btLIFfPD2b-20" value="&lt;font style=&quot;font-size: 28px&quot;&gt;&lt;b&gt;......&lt;/b&gt;&lt;/font&gt;" style="text;html=1;align=center;verticalAlign=middle;resizable=0;points=[];autosize=1;strokeColor=none;" parent="1" vertex="1">
          <mxGeometry x="210" y="610" width="60" height="30" as="geometry" />
        </mxCell>
        <mxCell id="7CHLF1nU-8btLIFfPD2b-21" style="rounded=0;orthogonalLoop=1;jettySize=auto;html=1;endArrow=none;endFill=0;strokeWidth=2;entryX=0;entryY=0.5;entryDx=0;entryDy=0;" parent="1" target="7CHLF1nU-8btLIFfPD2b-12" edge="1">
          <mxGeometry relative="1" as="geometry">
            <mxPoint x="270" y="620" as="sourcePoint" />
            <mxPoint x="351.7157287525331" y="638.284271247467" as="targetPoint" />
          </mxGeometry>
        </mxCell>
        <mxCell id="7CHLF1nU-8btLIFfPD2b-22" value="&lt;font style=&quot;font-size: 28px&quot;&gt;&lt;b&gt;......&lt;/b&gt;&lt;/font&gt;" style="text;html=1;align=center;verticalAlign=middle;resizable=0;points=[];autosize=1;strokeColor=none;" parent="1" vertex="1">
          <mxGeometry x="690" y="610" width="60" height="30" as="geometry" />
        </mxCell>
        <mxCell id="7CHLF1nU-8btLIFfPD2b-23" style="rounded=0;orthogonalLoop=1;jettySize=auto;html=1;endArrow=none;endFill=0;strokeWidth=2;entryX=1;entryY=0.5;entryDx=0;entryDy=0;exitX=-0.027;exitY=0.33;exitDx=0;exitDy=0;exitPerimeter=0;" parent="1" source="7CHLF1nU-8btLIFfPD2b-22" target="7CHLF1nU-8btLIFfPD2b-4" edge="1">
          <mxGeometry relative="1" as="geometry">
            <mxPoint x="300" y="624" as="sourcePoint" />
            <mxPoint x="339.9999999999966" y="610" as="targetPoint" />
          </mxGeometry>
        </mxCell>
        <mxCell id="7CHLF1nU-8btLIFfPD2b-25" value="&lt;font style=&quot;font-size: 28px&quot;&gt;1&lt;/font&gt;" style="ellipse;whiteSpace=wrap;html=1;aspect=fixed;fillColor=#e3c800;strokeColor=#B09500;fontColor=#000000;" parent="1" vertex="1">
          <mxGeometry x="320" y="720" width="80" height="80" as="geometry" />
        </mxCell>
        <mxCell id="7CHLF1nU-8btLIFfPD2b-26" value="&lt;font style=&quot;font-size: 28px&quot;&gt;1&lt;/font&gt;" style="ellipse;whiteSpace=wrap;html=1;aspect=fixed;fillColor=#e3c800;strokeColor=#B09500;fontColor=#000000;" parent="1" vertex="1">
          <mxGeometry x="560" y="720" width="80" height="80" as="geometry" />
        </mxCell>
        <mxCell id="7CHLF1nU-8btLIFfPD2b-27" style="rounded=0;orthogonalLoop=1;jettySize=auto;html=1;exitX=1;exitY=0;exitDx=0;exitDy=0;endArrow=none;endFill=0;strokeWidth=2;entryX=0;entryY=0.5;entryDx=0;entryDy=0;" parent="1" source="7CHLF1nU-8btLIFfPD2b-25" target="7CHLF1nU-8btLIFfPD2b-10" edge="1">
          <mxGeometry relative="1" as="geometry">
            <mxPoint x="298.28427124746713" y="681.715728752533" as="sourcePoint" />
            <mxPoint x="351.7157287525331" y="638.284271247467" as="targetPoint" />
          </mxGeometry>
        </mxCell>
        <mxCell id="7CHLF1nU-8btLIFfPD2b-28" style="rounded=0;orthogonalLoop=1;jettySize=auto;html=1;exitX=0;exitY=0;exitDx=0;exitDy=0;endArrow=none;endFill=0;strokeWidth=2;entryX=1;entryY=0.5;entryDx=0;entryDy=0;" parent="1" source="7CHLF1nU-8btLIFfPD2b-26" target="7CHLF1nU-8btLIFfPD2b-10" edge="1">
          <mxGeometry relative="1" as="geometry">
            <mxPoint x="398.28427124746713" y="741.715728752533" as="sourcePoint" />
            <mxPoint x="450" y="720" as="targetPoint" />
          </mxGeometry>
        </mxCell>
        <mxCell id="7CHLF1nU-8btLIFfPD2b-29" value="&lt;font style=&quot;font-size: 28px&quot;&gt;&lt;b&gt;......&lt;/b&gt;&lt;/font&gt;" style="text;html=1;align=center;verticalAlign=middle;resizable=0;points=[];autosize=1;strokeColor=none;" parent="1" vertex="1">
          <mxGeometry x="450" y="770" width="60" height="30" as="geometry" />
        </mxCell>
        <mxCell id="7CHLF1nU-8btLIFfPD2b-30" style="rounded=0;orthogonalLoop=1;jettySize=auto;html=1;endArrow=none;endFill=0;strokeWidth=2;entryX=0.5;entryY=1;entryDx=0;entryDy=0;" parent="1" source="7CHLF1nU-8btLIFfPD2b-29" target="7CHLF1nU-8btLIFfPD2b-10" edge="1">
          <mxGeometry relative="1" as="geometry">
            <mxPoint x="678.8600000000001" y="620.39" as="sourcePoint" />
            <mxPoint x="640.0000000000036" y="610" as="targetPoint" />
          </mxGeometry>
        </mxCell>
        <mxCell id="7CHLF1nU-8btLIFfPD2b-31" style="rounded=0;orthogonalLoop=1;jettySize=auto;html=1;exitX=0;exitY=0;exitDx=0;exitDy=0;endArrow=none;endFill=0;strokeWidth=2;entryX=1;entryY=1;entryDx=0;entryDy=0;" parent="1" source="7CHLF1nU-8btLIFfPD2b-9" target="7CHLF1nU-8btLIFfPD2b-4" edge="1">
          <mxGeometry relative="1" as="geometry">
            <mxPoint x="288.28427124746213" y="681.715728752538" as="sourcePoint" />
            <mxPoint x="351.7157287525331" y="638.284271247467" as="targetPoint" />
          </mxGeometry>
        </mxCell>
        <mxCell id="8dlQ_aZaWUlfwj2y2Kz1-1" value="&lt;font style=&quot;font-size: 28px&quot;&gt;&lt;b&gt;......&lt;/b&gt;&lt;/font&gt;" style="text;html=1;align=center;verticalAlign=middle;resizable=0;points=[];autosize=1;strokeColor=none;" vertex="1" parent="1">
          <mxGeometry x="450" y="510" width="60" height="30" as="geometry" />
        </mxCell>
        <mxCell id="8dlQ_aZaWUlfwj2y2Kz1-2" style="rounded=0;orthogonalLoop=1;jettySize=auto;html=1;endArrow=none;endFill=0;strokeWidth=2;entryX=0.5;entryY=0;entryDx=0;entryDy=0;" edge="1" parent="1" source="8dlQ_aZaWUlfwj2y2Kz1-1" target="7CHLF1nU-8btLIFfPD2b-3">
          <mxGeometry relative="1" as="geometry">
            <mxPoint x="570" y="610" as="sourcePoint" />
            <mxPoint x="530" y="620" as="targetPoint" />
          </mxGeometry>
        </mxCell>
        <mxCell id="8dlQ_aZaWUlfwj2y2Kz1-3" value="&lt;font style=&quot;font-size: 28px&quot;&gt;&lt;b&gt;......&lt;/b&gt;&lt;/font&gt;" style="text;html=1;align=center;verticalAlign=middle;resizable=0;points=[];autosize=1;strokeColor=none;" vertex="1" parent="1">
          <mxGeometry x="350" y="650" width="60" height="30" as="geometry" />
        </mxCell>
        <mxCell id="8dlQ_aZaWUlfwj2y2Kz1-4" value="&lt;font style=&quot;font-size: 28px&quot;&gt;&lt;b&gt;......&lt;/b&gt;&lt;/font&gt;" style="text;html=1;align=center;verticalAlign=middle;resizable=0;points=[];autosize=1;strokeColor=none;" vertex="1" parent="1">
          <mxGeometry x="550" y="650" width="60" height="30" as="geometry" />
        </mxCell>
        <mxCell id="8dlQ_aZaWUlfwj2y2Kz1-6" style="rounded=0;orthogonalLoop=1;jettySize=auto;html=1;exitX=0;exitY=1;exitDx=0;exitDy=0;endArrow=none;endFill=0;strokeWidth=2;" edge="1" parent="1" source="7CHLF1nU-8btLIFfPD2b-3">
          <mxGeometry relative="1" as="geometry">
            <mxPoint x="450" y="620" as="sourcePoint" />
            <mxPoint x="415" y="660" as="targetPoint" />
          </mxGeometry>
        </mxCell>
        <mxCell id="8dlQ_aZaWUlfwj2y2Kz1-7" style="rounded=0;orthogonalLoop=1;jettySize=auto;html=1;exitX=1;exitY=1;exitDx=0;exitDy=0;endArrow=none;endFill=0;strokeWidth=2;entryX=-0.019;entryY=0.267;entryDx=0;entryDy=0;entryPerimeter=0;" edge="1" parent="1" source="7CHLF1nU-8btLIFfPD2b-3" target="8dlQ_aZaWUlfwj2y2Kz1-4">
          <mxGeometry relative="1" as="geometry">
            <mxPoint x="460" y="630" as="sourcePoint" />
            <mxPoint x="420" y="620" as="targetPoint" />
          </mxGeometry>
        </mxCell>
      </root>
    </mxGraphModel>
  </diagram>
</mxfile>
